<svg width="249" height="186" viewBox="0 0 249 186" fill="none" xmlns="http://www.w3.org/2000/svg">
<path opacity="0.08" d="M196 62C196 81.0956 188.414 99.4091 174.912 112.912C161.409 126.414 143.096 134 124 134C104.904 134 86.5909 126.414 73.0883 112.912C59.5857 99.4091 52 81.0956 52 62L124 62H196Z" fill="#22AA48"/>
<path opacity="0.08" d="M226 62C226 89.0521 215.254 114.996 196.125 134.125C176.996 153.254 151.052 164 124 164C96.9479 164 71.0038 153.254 51.8751 134.125C32.7464 114.996 22 89.0521 22 62L124 62L226 62Z" fill="#22AA48"/>
<path opacity="0.08" d="M249 61.5C249 94.5195 235.883 126.187 212.535 149.535C189.187 172.883 157.519 186 124.5 186C91.4806 186 59.8135 172.883 36.4652 149.535C13.1169 126.187 4.9858e-06 94.5195 0 61.5L124.5 61.5H249Z" fill="#22AA48"/>
<rect x="69" width="110" height="110" rx="55" fill="#22AA48"/>
<path d="M140.669 44.5835L119.226 66.027C118.412 66.8406 117.093 66.8406 116.279 66.027L107.336 57.0835" stroke="white" stroke-width="7" stroke-linecap="round"/>
</svg>
